<svg width="50" height="50" viewBox="0 0 50 50" fill="none" xmlns="http://www.w3.org/2000/svg">
<rect width="50" height="50" rx="25" fill="white"/>
<path d="M33.4815 17.2182C31.9298 16.4949 30.2498 15.9699 28.4998 15.6666C28.4845 15.6661 28.4692 15.6689 28.4551 15.675C28.441 15.681 28.4284 15.6901 28.4181 15.7016C28.2081 16.0866 27.9631 16.5882 27.7998 16.9732C25.9436 16.6932 24.056 16.6932 22.1998 16.9732C22.0365 16.5766 21.7915 16.0866 21.5698 15.7016C21.5581 15.6782 21.5231 15.6666 21.4881 15.6666C19.7381 15.9699 18.0698 16.4949 16.5065 17.2182C16.4948 17.2182 16.4831 17.2299 16.4715 17.2416C13.2981 21.9899 12.4231 26.6099 12.8548 31.1832C12.8548 31.2066 12.8665 31.2299 12.8898 31.2416C14.9898 32.7816 17.0081 33.7149 19.0031 34.3332C19.0381 34.3449 19.0731 34.3332 19.0848 34.3099C19.5515 33.6682 19.9715 32.9916 20.3331 32.2799C20.3565 32.2332 20.3331 32.1866 20.2865 32.1749C19.6215 31.9182 18.9915 31.6149 18.3731 31.2649C18.3265 31.2416 18.3265 31.1716 18.3615 31.1366C18.4898 31.0432 18.6181 30.9382 18.7465 30.8449C18.7698 30.8216 18.8048 30.8216 18.8281 30.8332C22.8415 32.6649 27.1698 32.6649 31.1365 30.8332C31.1598 30.8216 31.1948 30.8216 31.2181 30.8449C31.3465 30.9499 31.4748 31.0432 31.6031 31.1482C31.6498 31.1832 31.6498 31.2532 31.5915 31.2766C30.9848 31.6382 30.3431 31.9299 29.6781 32.1866C29.6315 32.1982 29.6198 32.2566 29.6315 32.2916C30.0048 33.0032 30.4248 33.6799 30.8798 34.3216C30.9148 34.3332 30.9498 34.3449 30.9848 34.3332C32.9915 33.7149 35.0098 32.7816 37.1098 31.2416C37.1331 31.2299 37.1448 31.2066 37.1448 31.1832C37.6581 25.8982 36.2931 21.3132 33.5281 17.2416C33.5165 17.2299 33.5048 17.2182 33.4815 17.2182ZM20.9398 28.3949C19.7381 28.3949 18.7348 27.2866 18.7348 25.9216C18.7348 24.5566 19.7148 23.4482 20.9398 23.4482C22.1765 23.4482 23.1565 24.5682 23.1448 25.9216C23.1448 27.2866 22.1648 28.3949 20.9398 28.3949ZM29.0715 28.3949C27.8698 28.3949 26.8665 27.2866 26.8665 25.9216C26.8665 24.5566 27.8465 23.4482 29.0715 23.4482C30.3081 23.4482 31.2881 24.5682 31.2765 25.9216C31.2765 27.2866 30.3081 28.3949 29.0715 28.3949Z" fill="#992C11"/>
</svg>
