<svg height="32" viewBox="0 0 32 32" width="32" xmlns="http://www.w3.org/2000/svg"><g fill="#fff" fill-rule="evenodd"><path d="m16 32c-8.837 0-16-7.163-16-16s7.163-16 16-16 16 7.163 16 16-7.163 16-16 16zm6.732-16-6.732-3.81-6.732 3.81 6.732 3.781 6.732-3.783zm-6.732 5.047a3944.37 3944.37 0 0 0 -7-3.952c2.079 3.248 4.66 7.26 7 10.904 2.34-3.643 4.921-7.656 7-10.904a3944.185 3944.185 0 0 0 -7 3.952zm0-10.089 7 3.907-7-10.865-7 10.866 7-3.907z"/><path d="m15.989 16.553-6.721-.577 6.72-3.802v4.379zm0 4.46v6.94c-2.337-3.638-4.913-7.642-6.989-10.883 2.45 1.38 5.008 2.823 6.989 3.944zm0-10.068-6.989 3.9 6.989-10.845z" fill-opacity=".8" fill-rule="nonzero"/><g fill-opacity=".5"><path d="m22.71 15.976-6.721.577v-4.379l6.72 3.802zm-6.721 5.038c1.98-1.12 4.537-2.564 6.988-3.944-2.076 3.242-4.652 7.246-6.988 10.882zm0-10.069v-6.945l6.988 10.845z" fill-rule="nonzero"/><path d="m15.988 16.553-6.721-.577 6.721 3.775z"/></g></g></svg>